#!OML:ASF I:\Actors\actors\Patient Classification 1\Patient 1\Session 1\Subject1.ASF
:FULLY-SPECIFIED
:DEGREES
609
root 0.705982 17.5331 8.89709 34.5769 17.052 -6.29403
lowerback 16.4418 3.46975 7.14662
upperback -2.03632 6.60368 4.44657
thorax -11.2571 2.83352 -0.823584
lowerneck 0.944115 -4.91366 1.20283
upperneck -12.5886 -2.6788 33.6122
head -3.32153 -2.90352 10.9408
rclavicle 2.62396e-014 -2.70347e-014
rhumerus 3.44608 29.9481 -54.9815
rradius 95.3034
rwrist 21.5861
rhand 0.151618 -29.194
rfingers 7.12502
rthumb 25.7356 -57.4738
lclavicle 2.62396e-014 -2.70347e-014
lhumerus 42.1399 -57.5129 41.4696
lradius 78.4386
lwrist -5.93811
lhand -42.3951 -13.6411
lfingers 7.12502
lthumb -15.2758 15.7748
rfemur -26.9133 32.7494 5.06385
rtibia -3.97928
rfoot -39.6701 -43.4268
rtoes 41.4488
lfemur -51.7643 -56.7162 39.6723
ltibia -5.81601
lfoot -48.2927 60.7839
ltoes 35.1899
610
root 0.706427 17.5342 8.90471 34.6831 17.014 -6.20248
lowerback 16.4402 3.394 7.19627
upperback -2.23327 6.53346 4.43631
thorax -11.4784 2.78559 -0.849432
lowerneck 1.53452 -4.97662 1.09012
upperneck -13.8031 -2.40637 33.1942
head -3.8523 -2.93539 10.8934
rclavicle -5.64548e-014 -2.8625e-014
rhumerus 4.09444 29.9908 -53.4323
rradius 95.5704
rwrist 20.1297
rhand 0.365603 -29.2988
rfingers 7.12502
rthumb 25.9405 -57.5488
lclavicle -5.64548e-014 -2.8625e-014
lhumerus 41.2286 -57.7686 42.1956
lradius 78.516
lwrist -5.93763
lhand -42.63 -13.7962
lfingers 7.12502
lthumb -15.502 15.6023
rfemur -27.0009 32.7193 4.91443
rtibia -3.96245
rfoot -39.6495 -43.5068
rtoes 41.3786
lfemur -51.8716 -56.6781 39.6553
ltibia -5.79078
lfoot -48.3908 60.72
ltoes 35.3002
611
root 0.706478 17.536 8.91305 34.7441 17.032 -6.14659
lowerback 16.437 3.27044 7.26333
upperback -2.32442 6.39618 4.46614
thorax -11.5856 2.71259 -0.821663
lowerneck 1.31999 -5.42747 0.587807
upperneck -14.6623 -2.87464 33.4047
head -3.95029 -3.23009 11.1141
rclavicle -1.00983e-013 1.90833e-014
rhumerus 4.24039 30.3342 -53.6458
rradius 95.3951
rwrist 20.1998
rhand 0.185783 -29.2669
rfingers 7.12502
rthumb 25.7683 -57.5419
lclavicle -1.00983e-013 1.90833e-014
lhumerus 40.4272 -57.8033 42.79
lradius 78.5894
lwrist -5.95055
lhand -42.9034 -14.0294
lfingers 7.12502
lthumb -15.7654 15.3486
rfemur -27.0016 32.6885 4.87713
rtibia -3.9731
rfoot -39.7316 -43.4931
rtoes 41.5011
lfemur -51.9784 -56.6603 39.725
ltibia -5.79721
lfoot -48.3819 60.7155
ltoes 35.3543
612
root 0.706407 17.5383 8.92204 34.7719 17.0254 -6.11911
lowerback 16.454 3.10055 7.22578
upperback -2.30649 6.17957 4.60278
thorax -11.6085 2.61881 -0.59875
lowerneck 1.09445 -5.58419 0.367941
upperneck -15.6797 -2.91809 33.0868
head -4.19754 -3.32179 11.0868
rclavicle -1.27222e-014 4.77083e-015
rhumerus 4.74625 30.8226 -53.502
rradius 95.3355
rwrist 20.1115
rhand 0.0403871 -29.2539
rfingers 7.12502
rthumb 25.6291 -57.5491
lclavicle -1.27222e-014 4.77083e-015
lhumerus 39.4648 -57.4877 43.5423
lradius 78.676
lwrist -6.03003
lhand -43.0324 -14.1994
lfingers 7.12502
lthumb -15.8895 15.1687
rfemur -26.9744 32.7044 4.86718
rtibia -4.00094
rfoot -39.8213 -43.4161
rtoes 41.8406
lfemur -52.0112 -56.6387 39.7466
ltibia -5.79573
lfoot -48.3783 60.721
ltoes 35.4198
613
root 0.706781 17.5405 8.92925 34.8059 16.9476 -6.11027
lowerback 16.4956 2.966 7.16736
upperback -2.32274 6.00902 4.7139
thorax -11.6801 2.5446 -0.405149
lowerneck 1.00989 -5.57722 0.348922
upperneck -16.7669 -2.7051 32.5288
head -4.56027 -3.30056 10.9446
rclavicle 8.98507e-014 4.13472e-014
rhumerus 5.1071 31.3069 -53.3369
rradius 95.3711
rwrist 20.025
rhand 0.120725 -29.1653
rfingers 7.12502
rthumb 25.706 -57.4494
lclavicle 8.98507e-014 4.13472e-014
lhumerus 38.3752 -57.2262 44.3683
lradius 78.8174
lwrist -6.10366
lhand -43.0898 -14.315
lfingers 7.12502
lthumb -15.9448 15.0487
rfemur -27.0479 32.7676 4.78638
rtibia -3.98443
rfoot -39.7163 -43.4659
rtoes 41.9223
lfemur -51.9589 -56.5933 39.6493
ltibia -5.7718
lfoot -48.4766 60.6841
ltoes 35.5799
614
root 0.707524 17.5425 8.93442 34.8447 16.8513 -6.13895
lowerback 16.537 2.86727 7.17399
upperback -2.38293 5.89756 4.77218
thorax -11.7857 2.48969 -0.320051
lowerneck 1.05649 -5.62713 0.476869
upperneck -17.7913 -2.57854 31.9421
head -4.92429 -3.32757 10.7689
rclavicle -3.02153e-014 7.15625e-014
rhumerus 5.28853 31.7031 -53.2811
rradius 95.3699
rwrist 20.0029
rhand 0.281074 -29.0488
rfingers 7.12502
rthumb 25.8596 -57.3106
lclavicle -3.02153e-014 7.15625e-014
lhumerus 37.4061 -57.0978 45.0797
lradius 78.9264
lwrist -6.13716
lhand -43.1995 -14.501
lfingers 7.12502
lthumb -16.0505 14.8542
rfemur -27.1783 32.8567 4.70239
rtibia -3.94685
rfoot -39.4735 -43.646
rtoes 41.715
lfemur -51.8603 -56.5094 39.5437
ltibia -5.77754
lfoot -48.5473 60.6386
ltoes 35.826
615
root 0.707701 17.544 8.93997 34.9158 16.7002 -6.14249
lowerback 16.5681 2.79492 7.16585
upperback -2.46734 5.81113 4.7643
thorax -11.905 2.44383 -0.305107
lowerneck 0.968884 -5.82341 0.22387
upperneck -18.6452 -2.70735 31.7741
head -5.13608 -3.44655 10.8124
rclavicle 6.99722e-014 7.63333e-014
rhumerus 5.46646 32.0143 -53.3697
rradius 95.2589
rwrist 20.0787
rhand 0.346444 -29.0335
rfingers 7.12502
rthumb 25.9222 -57.2862
lclavicle 6.99722e-014 7.63333e-014
lhumerus 36.6833 -57.0376 45.5505
lradius 78.9791
lwrist -6.18369
lhand -43.2707 -14.6418
lfingers 7.12502
lthumb -16.119 14.7079
rfemur -27.3229 32.9705 4.55012
rtibia -3.94286
rfoot -39.3045 -43.7956
rtoes 41.546
lfemur -51.7174 -56.3936 39.3568
ltibia -5.78806
lfoot -48.6997 60.5425
ltoes 36.2288
616
root 0.707637 17.5448 8.94567 35.0363 16.4909 -6.09701
lowerback 16.5665 2.76371 7.10801
upperback -2.55978 5.76234 4.72505
thorax -12.0132 2.41815 -0.304939
lowerneck 1.09882 -5.90638 0.406255
upperneck -19.7903 -2.62673 31.0275
head -5.55876 -3.49851 10.5852
rclavicle -3.02153e-014 -4.45278e-014
rhumerus 5.62164 32.2997 -53.4179
rradius 95.2335
rwrist 20.1587
rhand 0.366025 -29.1246
rfingers 7.12502
rthumb 25.9409 -57.3745
lclavicle -3.02153e-014 -4.45278e-014
lhumerus 36.0966 -57.023 45.9432
lradius 79.0317
lwrist -6.2629
lhand -43.2655 -14.6464
lfingers 7.12502
lthumb -16.114 14.7037
rfemur -27.5049 33.0866 4.28958
rtibia -3.96737
rfoot -39.2929 -43.8513
rtoes 41.5576
lfemur -51.5604 -56.2767 39.0608
ltibia -5.76719
lfoot -48.7469 60.4883
ltoes 36.4213
617
root 0.707591 17.5454 8.95037 35.1532 16.3077 -6.06468
lowerback 16.5644 2.73941 7.07594
upperback -2.61408 5.7284 4.72178
thorax -12.0786 2.40134 -0.282632
lowerneck 0.82278 -6.06938 -0.145535
upperneck -20.3877 -2.80489 31.0183
head -5.62869 -3.5824 10.7197
rclavicle -7.15625e-015 4.77083e-014
rhumerus 5.83549 32.5728 -53.3097
rradius 95.2731
rwrist 20.1948
rhand 0.41167 -29.2878
rfingers 7.12502
rthumb 25.9846 -57.5313
lclavicle -7.15625e-015 4.77083e-014
lhumerus 35.5887 -56.9639 46.3166
lradius 79.1168
lwrist -6.24642
lhand -43.2134 -14.6581
lfingers 7.12502
lthumb -16.0639 14.696
rfemur -27.6514 33.1929 4.06494
rtibia -4.02761
rfoot -39.4104 -43.838
rtoes 41.6822
lfemur -51.4133 -56.1738 38.8025
ltibia -5.7717
lfoot -48.4193 60.6385
ltoes 36.1077
618
root 0.707102 17.5451 8.95469 35.2735 16.1442 -6.02267
lowerback 16.5542 2.67267 7.01756
upperback -2.67469 5.6324 4.72022
thorax -12.152 2.35727 -0.227585
lowerneck 0.724947 -6.23294 -0.514693
upperneck -21.2251 -2.94222 30.7258
head -5.83408 -3.67472 10.7402
rclavicle 4.77083e-014 4.77083e-014
rhumerus 6.09046 32.9091 -53.2896
rradius 95.2093
rwrist 20.2264
rhand 0.400824 -29.3706
rfingers 7.12502
rthumb 25.9742 -57.6156
lclavicle 4.77083e-014 4.77083e-014
lhumerus 34.9619 -56.889 46.684
lradius 79.2199
lwrist -6.12288
lhand -43.2287 -14.6798
lfingers 7.12502
lthumb -16.0786 14.6732
rfemur -27.7245 33.2913 3.8703
rtibia -4.15341
rfoot -39.6601 -43.7388
rtoes 41.9737
lfemur -51.2843 -56.077 38.5774
ltibia -5.81039
lfoot -48.1633 60.7898
ltoes 35.8609
619
root 0.707433 17.5432 8.95826 35.4036 15.9925 -5.94595
lowerback 16.6098 2.5602 6.89756
upperback -2.8299 5.47756 4.69997
thorax -12.3793 2.28281 -0.147747
lowerneck 0.732656 -6.36842 -0.492668
upperneck -21.8927 -3.10587 30.0837
head -6.03572 -3.77454 10.5416
rclavicle 4.29375e-014 6.36111e-014
rhumerus 6.20668 33.3976 -53.4423
rradius 95.1017
rwrist 20.1943
rhand 0.37065 -29.2788
rfingers 7.12502
rthumb 25.9453 -57.5281
lclavicle 4.29375e-014 6.36111e-014
lhumerus 33.978 -56.875 47.264
lradius 79.2943
lwrist -6.12157
lhand -43.3479 -14.5206
lfingers 7.12502
lthumb -16.1934 14.8231
rfemur -27.7775 33.357 3.65371
rtibia -4.29405
rfoot -39.9418 -43.6032
rtoes 42.3509
lfemur -51.2325 -55.9895 38.3772
ltibia -5.81583
lfoot -48.1425 60.8187
ltoes 35.8333
620
root 0.708437 17.5404 8.96022 35.4907 15.8686 -5.92497
lowerback 16.7594 2.45445 6.8323
upperback -3.0366 5.36275 4.71093
thorax -12.7202 2.22027 -0.0778093
lowerneck 0.798193 -6.49088 -0.546749
upperneck -22.4741 -3.2893 29.3986
head -6.21762 -3.86656 10.3376
rclavicle -3.97569e-015 -1.06549e-013
rhumerus 6.28294 33.9422 -53.5303
rradius 94.9999
rwrist 20.1285
rhand 0.489001 -29.2161
rfingers 7.12502
rthumb 26.0587 -57.4487
lclavicle -3.97569e-015 -1.06549e-013
lhumerus 32.8022 -56.9008 48.0569
lradius 79.3695
lwrist -6.18711
lhand -43.319 -14.5736
lfingers 7.12502
lthumb -16.1656 14.7723
rfemur -27.8535 33.4326 3.50137
rtibia -4.37007
rfoot -40.1281 -43.4927
rtoes 42.6371
lfemur -51.198 -55.8888 38.2472
ltibia -5.78159
lfoot -48.3157 60.7302
ltoes 35.949
621
root 0.708349 17.5368 8.96063 35.5526 15.7175 -5.9769
lowerback 16.8168 2.38939 6.84517
upperback -3.15969 5.30162 4.73708
thorax -12.9026 2.18458 -0.0427216
lowerneck 0.885378 -6.53827 -0.6897
upperneck -23.196 -3.33945 28.7223
head -6.46986 -3.89567 10.1716
rclavicle -1.43125e-014 -2.38542e-014
rhumerus 6.45955 34.3564 -53.4427
rradius 94.9042
rwrist 20.1528
rhand 0.704013 -29.1737
rfingers 7.12502
rthumb 26.2645 -57.3758
lclavicle -1.43125e-014 -2.38542e-014
lhumerus 31.9083 -56.8572 48.6821
lradius 79.4349
lwrist -6.13824
lhand -43.1302 -15.1791
lfingers 7.12502
lthumb -15.9837 14.1815
rfemur -28.0291 33.5798 3.39122
rtibia -4.34862
rfoot -40.063 -43.5746
rtoes 42.5881
lfemur -51.0619 -55.7472 38.0919
ltibia -5.74789
lfoot -48.5395 60.5874
ltoes 36.1461
